<svg width="92" height="92" viewBox="0 0 92 92" fill="none" xmlns="http://www.w3.org/2000/svg">
<rect width="91.5618" height="91.5618" rx="20" fill="#5865F2"/>
<path d="M62.4748 30.774C67.87 38.7626 70.5344 47.7735 69.5384 58.1471C69.5342 58.191 69.5115 58.2313 69.4757 58.2578C65.39 61.2791 61.4316 63.1127 57.5287 64.3286C57.4983 64.3379 57.4657 64.3374 57.4357 64.3272C57.4056 64.3169 57.3794 64.2975 57.3609 64.2715C56.4592 63.008 55.6399 61.676 54.9221 60.2772C54.8809 60.1948 54.9186 60.0956 55.0033 60.0631C56.3045 59.5694 57.5418 58.9776 58.7319 58.277C58.8257 58.2217 58.8316 58.0864 58.745 58.0215C58.4924 57.8326 58.2422 57.6342 58.0028 57.4357C57.958 57.399 57.8977 57.3918 57.8469 57.4165C50.1205 61.0097 41.6566 61.0097 33.8389 57.4165C33.7881 57.3936 33.7278 57.4015 33.6842 57.4375C33.4454 57.636 33.1946 57.8326 32.9444 58.0215C32.8578 58.0864 32.8649 58.2217 32.9593 58.277C34.1494 58.9644 35.3867 59.5694 36.686 60.0655C36.7702 60.098 36.8102 60.1948 36.7684 60.2772C36.0662 61.6778 35.2469 63.0098 34.3285 64.2733C34.2885 64.3244 34.2228 64.3479 34.1607 64.3286C30.2763 63.1127 26.3179 61.2791 22.2322 58.2578C22.1982 58.2313 22.1737 58.1892 22.1701 58.1453C21.3377 49.1723 23.0342 40.0868 29.2271 30.7722C29.2421 30.7476 29.2648 30.7283 29.291 30.7169C32.3383 29.3085 35.6028 28.2723 39.0149 27.6806C39.077 27.671 39.1391 27.6998 39.1713 27.7551C39.5929 28.5069 40.0748 29.4709 40.4009 30.2586C43.9974 29.7054 47.6502 29.7054 51.322 30.2586C51.648 29.4877 52.1132 28.5069 52.533 27.7551C52.5479 27.7277 52.5711 27.7057 52.5992 27.6923C52.6273 27.6789 52.6589 27.6748 52.6894 27.6806C56.1033 28.2741 59.3679 29.3103 62.4127 30.7169C62.4395 30.7283 62.4616 30.7476 62.4748 30.774V30.774ZM42.2293 47.8349C42.2669 45.1822 40.3465 42.9872 37.9359 42.9872C35.5449 42.9872 33.643 45.163 33.643 47.8349C33.643 50.5062 35.5825 52.6819 37.9359 52.6819C40.3274 52.6819 42.2293 50.5062 42.2293 47.8349V47.8349ZM58.1025 47.8349C58.1401 45.1822 56.2197 42.9872 53.8097 42.9872C51.4181 42.9872 49.5162 45.163 49.5162 47.8349C49.5162 50.5062 51.4557 52.6819 53.8097 52.6819C56.2197 52.6819 58.1025 50.5062 58.1025 47.8349V47.8349Z" fill="white"/>
</svg>
