<svg width="92" height="92" viewBox="0 0 92 92" fill="none" xmlns="http://www.w3.org/2000/svg">
<rect width="91.5618" height="91.5618" rx="20" fill="#10BC4C"/>
<path d="M68.699 22.9884H22.8906V68.8375H68.699V22.9884Z" fill="#10BC4C"/>
<path fill-rule="evenodd" clip-rule="evenodd" d="M45.7948 22.9884C33.1975 22.9884 22.8906 33.3044 22.8906 45.9129C22.8906 58.5214 33.1975 68.8375 45.7948 68.8375C58.3921 68.8375 68.699 58.5214 68.699 45.9129C68.699 33.3044 58.5066 22.9884 45.7948 22.9884ZM56.3307 56.1144C55.8727 56.8021 55.071 57.0314 54.3839 56.5729C49.0014 53.2488 42.2447 52.5611 34.2282 54.395C33.4265 54.6243 32.7394 54.0512 32.5104 53.3634C32.2813 52.5611 32.8539 51.8733 33.5411 51.6441C42.2447 49.6955 49.803 50.4979 55.7581 54.1658C56.5598 54.5097 56.6743 55.4266 56.3307 56.1144ZM59.0792 49.8101C58.5066 50.6125 57.4759 50.9563 56.6743 50.3832C50.4902 46.6007 41.0995 45.4545 33.8846 47.7469C32.9685 47.9762 31.9378 47.5177 31.7087 46.6007C31.4797 45.6837 31.9378 44.6521 32.8539 44.4229C41.214 41.9012 51.5209 43.162 58.6212 47.5177C59.3083 47.8615 59.6518 49.0078 59.0792 49.8101ZM59.3083 43.3912C51.9789 39.0356 39.7252 38.5771 32.7394 40.7549C31.5942 41.0988 30.449 40.4111 30.1054 39.3795C29.7619 38.2332 30.449 37.087 31.4797 36.7431C39.6107 34.3361 53.0096 34.7945 61.4842 39.8379C62.5149 40.4111 62.8584 41.7865 62.2858 42.8181C61.7132 43.6205 60.339 43.9644 59.3083 43.3912Z" fill="white"/>
</svg>
