<svg width="92" height="92" viewBox="0 0 92 92" fill="none" xmlns="http://www.w3.org/2000/svg">
<rect width="91.5618" height="91.5618" rx="20" fill="black"/>
<path fill-rule="evenodd" clip-rule="evenodd" d="M55.6702 39.5576C58.7368 41.7396 62.4092 42.9054 66.1717 42.8912V35.4279C65.432 35.4299 64.6944 35.3507 63.972 35.1915V41.1374C60.201 41.144 56.5232 39.9649 53.458 37.7664V53.1161C53.4487 55.6348 52.7586 58.1041 51.4608 60.2621C50.163 62.4201 48.306 64.1863 46.0865 65.3735C43.8671 66.5607 41.368 67.1247 38.8543 67.0055C36.3406 66.8864 33.906 66.0886 31.8086 64.6967C33.7486 66.6614 36.2275 68.0056 38.9314 68.5593C41.6352 69.1129 44.4424 68.851 46.9975 67.8068C49.5525 66.7626 51.7405 64.9829 53.2844 62.6933C54.8283 60.4036 55.6586 57.7069 55.6702 54.9446V39.5576ZM58.3919 31.945C56.8324 30.2532 55.8755 28.0928 55.6702 25.8001V24.8299H53.5823C53.8404 26.2872 54.402 27.6739 55.2306 28.8997C56.0592 30.1255 57.1363 31.1631 58.3919 31.945V31.945ZM36.643 58.7882C35.9194 57.8411 35.4759 56.7096 35.3631 55.5226C35.2503 54.3356 35.4726 53.1408 36.0049 52.0741C36.5371 51.0073 37.3579 50.1116 38.3737 49.4887C39.3895 48.8659 40.5597 48.541 41.7509 48.551C42.4086 48.5508 43.0624 48.6514 43.6897 48.8495V41.1374C42.9565 41.0402 42.217 40.9986 41.4775 41.013V47.0085C39.9503 46.5253 38.2973 46.6352 36.8473 47.3163C35.3973 47.9974 34.2566 49.1998 33.652 50.6844C33.0474 52.1689 33.0233 53.8269 33.5844 55.3284C34.1455 56.83 35.2508 58.0651 36.6803 58.7882H36.643Z" fill="#EE1D52"/>
<path fill-rule="evenodd" clip-rule="evenodd" d="M53.4569 37.7166C56.5221 39.9151 60.1999 41.0943 63.9709 41.0876V35.1418C61.8224 34.6871 59.8706 33.569 58.3908 31.945C57.1353 31.1631 56.0582 30.1255 55.2295 28.8997C54.4009 27.6739 53.8393 26.2872 53.5812 24.8299H48.0881V54.9446C48.083 56.2776 47.6609 57.5755 46.8812 58.6561C46.1014 59.7367 45.0032 60.5458 43.7405 60.9698C42.4779 61.3938 41.1143 61.4114 39.8412 61.0202C38.568 60.6289 37.4493 59.8484 36.642 58.7882C35.3626 58.1421 34.3379 57.0834 33.7334 55.7829C33.1289 54.4824 32.9798 53.0161 33.3101 51.6204C33.6404 50.2246 34.4309 48.981 35.554 48.0901C36.6771 47.1992 38.0673 46.7131 39.5004 46.71C40.1579 46.7121 40.8114 46.8127 41.4391 47.0085V41.013C38.7269 41.0781 36.0926 41.9345 33.8598 43.477C31.6269 45.0195 29.8926 47.1809 28.8698 49.696C27.847 52.2111 27.5801 54.9704 28.102 57.6352C28.6238 60.2999 29.9117 62.7542 31.8075 64.6967C33.9054 66.0985 36.3438 66.9046 38.8632 67.029C41.3825 67.1533 43.8884 66.5914 46.1139 65.403C48.3394 64.2146 50.2011 62.4442 51.5008 60.2805C52.8005 58.1168 53.4894 55.6407 53.4942 53.116L53.4569 37.7166Z" fill="white"/>
<path fill-rule="evenodd" clip-rule="evenodd" d="M63.9716 35.1413V33.5366C61.9985 33.545 60.0635 32.9929 58.3915 31.9444C59.8676 33.5731 61.8209 34.6922 63.9716 35.1413V35.1413ZM53.5819 24.8294C53.5819 24.5433 53.4949 24.2447 53.4576 23.9586V22.9884H45.8766V53.1155C45.87 54.8025 45.195 56.4179 43.9997 57.6072C42.8044 58.7966 41.1865 59.4627 39.5011 59.4594C38.5087 59.4644 37.5292 59.2342 36.6427 58.7877C37.45 59.8478 38.5687 60.6284 39.8419 61.0196C41.115 61.4109 42.4786 61.3933 43.7412 60.9693C45.0039 60.5453 46.1021 59.7362 46.8819 58.6556C47.6616 57.5749 48.0836 56.277 48.0888 54.944V24.8294H53.5819ZM41.4398 41V39.2959C38.3203 38.8717 35.1492 39.5176 32.4433 41.1282C29.7375 42.7388 27.6564 45.2192 26.5394 48.1652C25.4223 51.1111 25.335 54.3489 26.2918 57.3509C27.2486 60.3528 29.193 62.9419 31.8082 64.6962C29.9268 62.7492 28.6526 60.2959 28.1414 57.636C27.6302 54.9761 27.904 52.2247 28.9295 49.7181C29.9551 47.2114 31.6878 45.0579 33.9161 43.5208C36.1443 41.9836 38.7717 41.1293 41.4771 41.0622L41.4398 41Z" fill="#69C9D0"/>
</svg>
